<svg xmlns="http://www.w3.org/2000/svg" viewBox="0 0 300 420">
  <defs>
    <linearGradient id="graf" x1="0" x2="1" y1="0" y2="1">
      <stop offset="0" stop-color="#050505"/>
      <stop offset=".45" stop-color="#d97706"/>
      <stop offset="1" stop-color="#22c55e"/>
    </linearGradient>
    <filter id="playerShadow" x="-60%" y="-60%" width="220%" height="220%">
      <feDropShadow dx="0" dy="11" stdDeviation="4" flood-color="#000" flood-opacity=".48"/>
    </filter>
    <filter id="paint"><feGaussianBlur stdDeviation="1"/></filter>
  </defs>
  <rect x="6" y="6" width="288" height="408" rx="20" fill="#050505" stroke="#22c55e" stroke-width="7"/>
  <rect x="20" y="20" width="260" height="300" rx="14" fill="url(#graf)"/>
  <text x="34" y="95" font-size="58" font-family="Impact, sans-serif" font-weight="900" fill="#fff" opacity=".22" transform="rotate(-9 34 95)">BOOM!</text>
  <text x="66" y="157" font-size="61" font-family="Impact, sans-serif" font-weight="900" fill="#22c55e" opacity=".45" transform="rotate(8 66 157)">HYPE</text>
  <path d="M38 53 C83 32 101 76 139 52 C180 25 216 75 268 40" stroke="#fff" stroke-width="6" stroke-opacity=".3" fill="none" filter="url(#paint)"/>
  
      <g transform="translate(150 177) scale(0.94)" filter="url(#playerShadow)">
        
          <path d="M-14 18 L-38 84" stroke="#d1d5db" stroke-width="20" stroke-linecap="round"/>
          <path d="M21 17 L64 68" stroke="#d1d5db" stroke-width="20" stroke-linecap="round"/>
          <path d="M-39 85 L-70 88" stroke="#dcfce7" stroke-width="8" stroke-linecap="round"/>
          <path d="M65 69 L90 64" stroke="#dcfce7" stroke-width="8" stroke-linecap="round"/>
        
        
          <path d="M-39 -36 L-82 -8" stroke="#e0ac69" stroke-width="17" stroke-linecap="round"/>
          <path d="M33 -45 L57 -76" stroke="#e0ac69" stroke-width="17" stroke-linecap="round"/>
        
        <path d="M-36 -36 Q0 -66 38 -36 L28 24 L-26 24Z" fill="#047857"/>
        <path d="M-14 -34 H16 L9 24 H-8Z" fill="#dcfce7" opacity=".2"/>
        <text x="0" y="-4" text-anchor="middle" font-size="24" font-weight="900" fill="#dcfce7" opacity=".85">SG</text>
        <circle cx="3" cy="-82" r="26" fill="#e0ac69"/>
        <path d="M-20 -85 Q-10 -113 5 -112 Q31 -110 34 -82 Q18 -95 2 -96 Q-12 -94 -20 -85Z" fill="#111827"/>
        
        <circle cx="-6" cy="-80" r="3" fill="#111827"/>
        <circle cx="12" cy="-80" r="3" fill="#111827"/>
        <path d="M-7 -67 Q4 -60 14 -67" stroke="#7c2d12" stroke-width="3" fill="none" stroke-linecap="round"/>
        <circle cx="55" cy="-77" r="18" fill="#f97316" stroke="#fff" stroke-width="2"/><path d="M37 -77 H73 M55 -95 V-59 M43 -89 Q55 -77 43 -65 M67 -89 Q55 -77 67 -65" stroke="#7c2d12" stroke-width="2" fill="none"/>
      </g>
    
  <text x="34" y="346" font-size="29" font-weight="900" fill="#fff">KAI NOVA</text>
  <text x="34" y="370" font-size="13" font-weight="900" fill="#d1d5db">PHOENIX HEAT</text>
  <text x="34" y="394" font-size="16" font-weight="900" fill="#22c55e">EPIC INSERT · OVR 80</text>
  
      <g transform="translate(247 364)">
        <rect x="-27" y="-27" width="54" height="54" rx="10" fill="#d97706" stroke="#fff" stroke-width="3"/>
        <text x="0" y="7" text-anchor="middle" font-size="18" font-weight="900" fill="#fff">PH</text>
      </g>
    
</svg>