<svg xmlns="http://www.w3.org/2000/svg" viewBox="0 0 300 420">
  <defs>
    <linearGradient id="neon" x1="0" x2="1" y1="0" y2="1">
      <stop offset="0" stop-color="#2563eb"/>
      <stop offset=".48" stop-color="#111827"/>
      <stop offset="1" stop-color="#06b6d4"/>
    </linearGradient>
    <filter id="playerShadow" x="-60%" y="-60%" width="220%" height="220%">
      <feDropShadow dx="0" dy="10" stdDeviation="4" flood-color="#000" flood-opacity=".45"/>
    </filter>
    <filter id="glow">
      <feGaussianBlur stdDeviation="3.5" result="b"/>
      <feMerge><feMergeNode in="b"/><feMergeNode in="SourceGraphic"/></feMerge>
    </filter>
  </defs>
  <rect x="6" y="6" width="288" height="408" rx="20" fill="#050505" stroke="#06b6d4" stroke-width="6"/>
  <rect x="20" y="20" width="260" height="290" rx="14" fill="url(#neon)"/>
  <path d="M35 58 C90 22 132 62 185 32 C230 8 259 38 280 20" stroke="#fff" stroke-opacity=".35" stroke-width="5" fill="none" filter="url(#glow)"/>
  <path d="M24 250 C70 220 108 278 163 229 C211 184 245 230 280 185 L280 310 L20 310Z" fill="#fff" opacity=".11"/>
  <text x="37" y="70" font-size="42" font-family="Brush Script MT, cursive" fill="#fff" filter="url(#glow)">Cole</text>
  
      <g transform="translate(151 176) scale(0.94)" filter="url(#playerShadow)">
        
              <path d="M-14 18 L-52 80" stroke="#d1d5db" stroke-width="20" stroke-linecap="round"/>
              <path d="M20 17 L70 60" stroke="#d1d5db" stroke-width="20" stroke-linecap="round"/>
              <path d="M-53 81 L-81 84" stroke="#fce7f3" stroke-width="8" stroke-linecap="round"/>
              <path d="M71 61 L95 55" stroke="#fce7f3" stroke-width="8" stroke-linecap="round"/>
            
        
              <path d="M-39 -37 L-80 -20" stroke="#e0ac69" stroke-width="16" stroke-linecap="round"/>
              <path d="M34 -43 L70 -58" stroke="#e0ac69" stroke-width="16" stroke-linecap="round"/>
            
        <path d="M-36 -36 Q0 -66 38 -36 L28 24 L-26 24Z" fill="#1d4ed8"/>
        <path d="M-14 -34 H16 L9 24 H-8Z" fill="#fce7f3" opacity=".2"/>
        <text x="0" y="-4" text-anchor="middle" font-size="24" font-weight="900" fill="#fce7f3" opacity=".85">CP</text>
        <circle cx="3" cy="-82" r="26" fill="#e0ac69"/>
        <path d="M-20 -85 Q-10 -113 5 -112 Q31 -110 34 -82 Q18 -95 2 -96 Q-12 -94 -20 -85Z" fill="#78350f"/>
        <path d="M-18 -101 Q4 -121 27 -101 L21 -89 Q3 -96 -17 -88Z" fill="#fce7f3" opacity=".92"/>
        <circle cx="-6" cy="-80" r="3" fill="#111827"/>
        <circle cx="12" cy="-80" r="3" fill="#111827"/>
        <path d="M-7 -67 Q4 -60 14 -67" stroke="#7c2d12" stroke-width="3" fill="none" stroke-linecap="round"/>
        <circle cx="67" cy="-58" r="5" fill="#fff"/><path d="M62 -61 Q67 -57 72 -61" stroke="#dc2626" stroke-width="1.2" fill="none"/>
      </g>
    
  <text x="35" y="336" font-size="29" font-weight="900" fill="#fff">COLE FROST</text>
  <text x="35" y="360" font-size="12" font-weight="800" fill="#d1d5db">MINNESOTA NORTH</text>
  <text x="35" y="383" font-size="17" font-weight="900" fill="#06b6d4">RARE · OVR 65</text>
  
      <g transform="translate(247 360)">
        <rect x="-27" y="-27" width="54" height="54" rx="10" fill="#2563eb" stroke="#fff" stroke-width="3"/>
        <text x="0" y="7" text-anchor="middle" font-size="18" font-weight="900" fill="#fff">MN</text>
      </g>
    
</svg>