<svg xmlns="http://www.w3.org/2000/svg" viewBox="0 0 300 420">
  <defs>
    <linearGradient id="chrome" x1="0" x2="1" y1="0" y2="1">
      <stop offset="0" stop-color="#ffffff"/>
      <stop offset=".25" stop-color="#dcfce7"/>
      <stop offset=".52" stop-color="#ffffff"/>
      <stop offset=".8" stop-color="#22c55e" stop-opacity=".55"/>
      <stop offset="1" stop-color="#ffffff"/>
    </linearGradient>
    <pattern id="rings" width="22" height="22" patternUnits="userSpaceOnUse">
      <circle cx="11" cy="11" r="8" fill="none" stroke="#2563eb" stroke-opacity=".14" stroke-width="2"/>
    </pattern>
    <filter id="playerShadow" x="-60%" y="-60%" width="220%" height="220%">
      <feDropShadow dx="0" dy="8" stdDeviation="4" flood-color="#000" flood-opacity=".36"/>
    </filter>
  </defs>
  <rect x="7" y="7" width="286" height="406" rx="18" fill="url(#chrome)" stroke="#22c55e" stroke-width="6"/>
  <rect x="22" y="22" width="256" height="278" rx="14" fill="url(#rings)"/>
  <rect x="35" y="35" width="230" height="250" rx="12" fill="#fff" opacity=".28"/>
  <text x="38" y="57" font-size="17" font-weight="900" fill="#2563eb">SEATTLE PINES</text>
  
      <g transform="translate(150 174) scale(0.9)" filter="url(#playerShadow)">
        
              <path d="M-14 18 L-38 84" stroke="#d1d5db" stroke-width="20" stroke-linecap="round"/>
              <path d="M20 17 L62 73" stroke="#d1d5db" stroke-width="20" stroke-linecap="round"/>
              <path d="M-39 85 L-69 87" stroke="#fce7f3" stroke-width="8" stroke-linecap="round"/>
              <path d="M63 74 L87 86" stroke="#fce7f3" stroke-width="8" stroke-linecap="round"/>
            
        
              <path d="M-38 -38 L-69 -3" stroke="#e0ac69" stroke-width="16" stroke-linecap="round"/>
              <path d="M33 -40 L58 -77" stroke="#e0ac69" stroke-width="16" stroke-linecap="round"/>
            
        <path d="M-36 -36 Q0 -66 38 -36 L28 24 L-26 24Z" fill="#c2410c"/>
        <path d="M-14 -34 H16 L9 24 H-8Z" fill="#fce7f3" opacity=".2"/>
        <text x="0" y="-4" text-anchor="middle" font-size="24" font-weight="900" fill="#fce7f3" opacity=".85">CF</text>
        <circle cx="3" cy="-82" r="26" fill="#e0ac69"/>
        <path d="M-20 -85 Q-10 -113 5 -112 Q31 -110 34 -82 Q18 -95 2 -96 Q-12 -94 -20 -85Z" fill="#374151"/>
        <path d="M-18 -101 Q4 -121 27 -101 L21 -89 Q3 -96 -17 -88Z" fill="#fce7f3" opacity=".92"/>
        <circle cx="-6" cy="-80" r="3" fill="#111827"/>
        <circle cx="12" cy="-80" r="3" fill="#111827"/>
        <path d="M-7 -67 Q4 -60 14 -67" stroke="#7c2d12" stroke-width="3" fill="none" stroke-linecap="round"/>
        <path d="M45 -105 L78 -18" stroke="#d6a95d" stroke-width="8" stroke-linecap="round"/><circle cx="83" cy="-56" r="5" fill="#fff"/>
      </g>
    
  <rect x="30" y="303" width="240" height="70" rx="9" fill="#ffffff" opacity=".7" stroke="#ffffff"/>
  <text x="150" y="333" text-anchor="middle" font-size="24" font-family="Georgia,serif" fill="#374151">Jordan Reed</text>
  <text x="150" y="356" text-anchor="middle" font-size="12" font-weight="900" fill="#2563eb">CF · OVR 70</text>
  
      <g transform="translate(247 383)">
        <rect x="-27" y="-27" width="54" height="54" rx="10" fill="#2563eb" stroke="#fff" stroke-width="3"/>
        <text x="0" y="7" text-anchor="middle" font-size="18" font-weight="900" fill="#fff">SP</text>
      </g>
    
</svg>