<svg xmlns="http://www.w3.org/2000/svg" viewBox="0 0 300 420">
  <defs>
    <linearGradient id="graf" x1="0" x2="1" y1="0" y2="1">
      <stop offset="0" stop-color="#050505"/>
      <stop offset=".45" stop-color="#2563eb"/>
      <stop offset="1" stop-color="#f59e0b"/>
    </linearGradient>
    <filter id="playerShadow" x="-60%" y="-60%" width="220%" height="220%">
      <feDropShadow dx="0" dy="11" stdDeviation="4" flood-color="#000" flood-opacity=".48"/>
    </filter>
    <filter id="paint"><feGaussianBlur stdDeviation="1"/></filter>
  </defs>
  <rect x="6" y="6" width="288" height="408" rx="20" fill="#050505" stroke="#f59e0b" stroke-width="7"/>
  <rect x="20" y="20" width="260" height="300" rx="14" fill="url(#graf)"/>
  <text x="34" y="95" font-size="58" font-family="Impact, sans-serif" font-weight="900" fill="#fff" opacity=".22" transform="rotate(-9 34 95)">BOOM!</text>
  <text x="66" y="157" font-size="61" font-family="Impact, sans-serif" font-weight="900" fill="#f59e0b" opacity=".45" transform="rotate(8 66 157)">HYPE</text>
  <path d="M38 53 C83 32 101 76 139 52 C180 25 216 75 268 40" stroke="#fff" stroke-width="6" stroke-opacity=".3" fill="none" filter="url(#paint)"/>
  
      <g transform="translate(150 177) scale(0.94)" filter="url(#playerShadow)">
        
              <path d="M-14 18 L-38 84" stroke="#f8fafc" stroke-width="20" stroke-linecap="round"/>
              <path d="M20 17 L62 73" stroke="#f8fafc" stroke-width="20" stroke-linecap="round"/>
              <path d="M-39 85 L-69 87" stroke="#fce7f3" stroke-width="8" stroke-linecap="round"/>
              <path d="M63 74 L87 86" stroke="#fce7f3" stroke-width="8" stroke-linecap="round"/>
            
        
              <path d="M-38 -38 L-69 -3" stroke="#f1c27d" stroke-width="16" stroke-linecap="round"/>
              <path d="M33 -40 L58 -77" stroke="#f1c27d" stroke-width="16" stroke-linecap="round"/>
            
        <path d="M-36 -36 Q0 -66 38 -36 L28 24 L-26 24Z" fill="#047857"/>
        <path d="M-14 -34 H16 L9 24 H-8Z" fill="#fce7f3" opacity=".2"/>
        <text x="0" y="-4" text-anchor="middle" font-size="24" font-weight="900" fill="#fce7f3" opacity=".85">RF</text>
        <circle cx="3" cy="-82" r="26" fill="#f1c27d"/>
        <path d="M-20 -85 Q-10 -113 5 -112 Q31 -110 34 -82 Q18 -95 2 -96 Q-12 -94 -20 -85Z" fill="#111827"/>
        <path d="M-18 -101 Q4 -121 27 -101 L21 -89 Q3 -96 -17 -88Z" fill="#fce7f3" opacity=".92"/>
        <circle cx="-6" cy="-80" r="3" fill="#111827"/>
        <circle cx="12" cy="-80" r="3" fill="#111827"/>
        <path d="M-7 -67 Q4 -60 14 -67" stroke="#7c2d12" stroke-width="3" fill="none" stroke-linecap="round"/>
        <path d="M45 -105 L78 -18" stroke="#d6a95d" stroke-width="8" stroke-linecap="round"/><circle cx="83" cy="-56" r="5" fill="#fff"/>
      </g>
    
  <text x="34" y="346" font-size="29" font-weight="900" fill="#fff">HANK HAMMER</text>
  <text x="34" y="370" font-size="13" font-weight="900" fill="#d1d5db">ATLANTA KINGS</text>
  <text x="34" y="394" font-size="16" font-weight="900" fill="#f59e0b">LEGENDARY INSERT · OVR 87</text>
  
      <g transform="translate(247 364)">
        <rect x="-27" y="-27" width="54" height="54" rx="10" fill="#2563eb" stroke="#fff" stroke-width="3"/>
        <text x="0" y="7" text-anchor="middle" font-size="18" font-weight="900" fill="#fff">AK</text>
      </g>
    
</svg>