<svg xmlns="http://www.w3.org/2000/svg" viewBox="0 0 300 420">
  <defs>
    <linearGradient id="neon" x1="0" x2="1" y1="0" y2="1">
      <stop offset="0" stop-color="#7c3f1d"/>
      <stop offset=".48" stop-color="#111827"/>
      <stop offset="1" stop-color="#06b6d4"/>
    </linearGradient>
    <filter id="playerShadow" x="-60%" y="-60%" width="220%" height="220%">
      <feDropShadow dx="0" dy="10" stdDeviation="4" flood-color="#000" flood-opacity=".45"/>
    </filter>
    <filter id="glow">
      <feGaussianBlur stdDeviation="3.5" result="b"/>
      <feMerge><feMergeNode in="b"/><feMergeNode in="SourceGraphic"/></feMerge>
    </filter>
  </defs>
  <rect x="6" y="6" width="288" height="408" rx="20" fill="#050505" stroke="#06b6d4" stroke-width="6"/>
  <rect x="20" y="20" width="260" height="290" rx="14" fill="url(#neon)"/>
  <path d="M35 58 C90 22 132 62 185 32 C230 8 259 38 280 20" stroke="#fff" stroke-opacity=".35" stroke-width="5" fill="none" filter="url(#glow)"/>
  <path d="M24 250 C70 220 108 278 163 229 C211 184 245 230 280 185 L280 310 L20 310Z" fill="#fff" opacity=".11"/>
  <text x="37" y="70" font-size="42" font-family="Brush Script MT, cursive" fill="#fff" filter="url(#glow)">Jalen</text>
  
      <g transform="translate(151 176) scale(0.94)" filter="url(#playerShadow)">
        
          <path d="M-15 18 L-46 83" stroke="#065f46" stroke-width="20" stroke-linecap="round"/>
          <path d="M22 16 L58 77" stroke="#065f46" stroke-width="20" stroke-linecap="round"/>
          <path d="M-48 84 L-76 90" stroke="#bfdbfe" stroke-width="8" stroke-linecap="round"/>
          <path d="M58 78 L82 90" stroke="#bfdbfe" stroke-width="8" stroke-linecap="round"/>
        
        
          <path d="M-36 -40 L-80 -18" stroke="#8d5524" stroke-width="17" stroke-linecap="round"/>
          <path d="M34 -43 L58 -42" stroke="#8d5524" stroke-width="17" stroke-linecap="round"/>
        
        <path d="M-36 -36 Q0 -66 38 -36 L28 24 L-26 24Z" fill="#0f172a"/>
        <path d="M-14 -34 H16 L9 24 H-8Z" fill="#bfdbfe" opacity=".2"/>
        <text x="0" y="-4" text-anchor="middle" font-size="24" font-weight="900" fill="#bfdbfe" opacity=".85">S</text>
        <circle cx="3" cy="-82" r="26" fill="#8d5524"/>
        <path d="M-20 -85 Q-10 -113 5 -112 Q31 -110 34 -82 Q18 -95 2 -96 Q-12 -94 -20 -85Z" fill="#111827"/>
        <path d="M-17 -100 Q0 -124 26 -101 L21 -87 Q0 -96 -18 -86Z" fill="#bfdbfe" opacity=".92"/><path d="M-21 -90 Q2 -99 26 -88" stroke="#111827" stroke-width="3" opacity=".55"/>
        <circle cx="-6" cy="-80" r="3" fill="#111827"/>
        <circle cx="12" cy="-80" r="3" fill="#111827"/>
        <path d="M-7 -67 Q4 -60 14 -67" stroke="#7c2d12" stroke-width="3" fill="none" stroke-linecap="round"/>
        <ellipse cx="48" cy="-39" rx="18" ry="10" fill="#7c3f1d" stroke="#fff" stroke-width="2" transform="rotate(-18 48 -39)"/><path d="M36 -39 L58 -39 M47 -46 L48 -32" stroke="#fff" stroke-width="1.8"/>
      </g>
    
  <text x="35" y="336" font-size="29" font-weight="900" fill="#fff">JALEN HAYES</text>
  <text x="35" y="360" font-size="12" font-weight="800" fill="#d1d5db">DENVER PEAKS</text>
  <text x="35" y="383" font-size="17" font-weight="900" fill="#06b6d4">RARE · OVR 70</text>
  
      <g transform="translate(247 360)">
        <rect x="-27" y="-27" width="54" height="54" rx="10" fill="#7c3f1d" stroke="#fff" stroke-width="3"/>
        <text x="0" y="7" text-anchor="middle" font-size="18" font-weight="900" fill="#fff">DP</text>
      </g>
    
</svg>