<svg xmlns="http://www.w3.org/2000/svg" viewBox="0 0 300 420">
  <defs>
    <linearGradient id="bg" x1="0" x2="1" y1="0" y2="1">
      <stop offset="0" stop-color="#dcfce7"/>
      <stop offset="1" stop-color="#22c55e" stop-opacity=".48"/>
    </linearGradient>
    <filter id="shadow" x="-60%" y="-60%" width="220%" height="220%">
      <feDropShadow dx="0" dy="9" stdDeviation="5" flood-color="#000" flood-opacity=".34"/>
    </filter>
  </defs>
  <rect x="8" y="8" width="284" height="404" rx="18" fill="#fff" stroke="#22c55e" stroke-width="7"/>
  <rect x="24" y="24" width="252" height="260" rx="14" fill="url(#bg)"/>
  <circle cx="244" cy="56" r="34" fill="#fff" opacity=".22"/>
  <text x="244" y="67" text-anchor="middle" font-size="38">🏈</text>
  <path d="M24 226 C72 185 112 246 160 202 C204 160 238 194 276 148 L276 284 L24 284Z" fill="#111827" opacity=".12"/>
  <text x="42" y="54" font-size="15" font-weight="900" fill="#7c3f1d">FOOTBALL</text>
  <text x="42" y="76" font-size="13" font-weight="800" fill="#334155">Two-Way</text>

  <g transform="translate(150 170)" filter="url(#shadow)">
    <path d="M-46 98 Q0 38 46 98Z" fill="#7c3f1d"/>
    <path d="M-25 98 Q0 54 25 98Z" fill="#f59e0b" opacity=".32"/>
    <circle cx="0" cy="4" r="42" fill="#e0ac69"/>
    <path d="M-38 1 Q-25 -39 2 -42 Q37 -37 42 1 Q19 -15 0 -14 Q-21 -13 -38 1Z" fill="#1f2937"/>
    <circle cx="-14" cy="9" r="4" fill="#111827"/>
    <circle cx="15" cy="9" r="4" fill="#111827"/>
    <path d="M-13 28 Q0 36 14 28" stroke="#7c2d12" stroke-width="4" fill="none" stroke-linecap="round"/>
    <text x="0" y="92" text-anchor="middle" font-size="26" font-weight="900" fill="#fff">TE</text>
  </g>

  <rect x="24" y="296" width="252" height="88" rx="12" fill="#111827"/>
  <text x="42" y="326" font-size="21" font-weight="900" fill="#fff">ARI MERCER</text>
  <text x="42" y="350" font-size="12" font-weight="700" fill="#d1d5db">Carolina Kings · TE</text>
  <text x="42" y="373" font-size="12" font-weight="900" fill="#fbbf24">UNCOMMON · Two-Way</text>

  <g transform="translate(238 346)">
    <rect x="-29" y="-29" width="58" height="58" rx="12" fill="#7c3f1d" stroke="#fff" stroke-width="3"/>
    <text x="0" y="7" text-anchor="middle" font-size="18" font-weight="900" fill="#fff">CK</text>
  </g>
</svg>