<svg xmlns="http://www.w3.org/2000/svg" viewBox="0 0 300 420">
  <defs>
    <linearGradient id="chrome" x1="0" x2="1" y1="0" y2="1">
      <stop offset="0" stop-color="#ffffff"/>
      <stop offset=".25" stop-color="#dbeafe"/>
      <stop offset=".52" stop-color="#ffffff"/>
      <stop offset=".8" stop-color="#60a5fa" stop-opacity=".55"/>
      <stop offset="1" stop-color="#ffffff"/>
    </linearGradient>
    <pattern id="rings" width="22" height="22" patternUnits="userSpaceOnUse">
      <circle cx="11" cy="11" r="8" fill="none" stroke="#7c3f1d" stroke-opacity=".14" stroke-width="2"/>
    </pattern>
    <filter id="playerShadow" x="-60%" y="-60%" width="220%" height="220%">
      <feDropShadow dx="0" dy="8" stdDeviation="4" flood-color="#000" flood-opacity=".36"/>
    </filter>
  </defs>
  <rect x="7" y="7" width="286" height="406" rx="18" fill="url(#chrome)" stroke="#60a5fa" stroke-width="6"/>
  <rect x="22" y="22" width="256" height="278" rx="14" fill="url(#rings)"/>
  <rect x="35" y="35" width="230" height="250" rx="12" fill="#fff" opacity=".28"/>
  <text x="38" y="57" font-size="17" font-weight="900" fill="#7c3f1d">MIAMI WAVES</text>
  
      <g transform="translate(150 174) scale(0.9)" filter="url(#playerShadow)">
        
          <path d="M-15 18 L-46 83" stroke="#f8fafc" stroke-width="20" stroke-linecap="round"/>
          <path d="M22 16 L58 77" stroke="#f8fafc" stroke-width="20" stroke-linecap="round"/>
          <path d="M-48 84 L-76 90" stroke="#fde68a" stroke-width="8" stroke-linecap="round"/>
          <path d="M58 78 L82 90" stroke="#fde68a" stroke-width="8" stroke-linecap="round"/>
        
        
          <path d="M-36 -40 L-80 -18" stroke="#f1c27d" stroke-width="17" stroke-linecap="round"/>
          <path d="M34 -43 L58 -42" stroke="#f1c27d" stroke-width="17" stroke-linecap="round"/>
        
        <path d="M-36 -36 Q0 -66 38 -36 L28 24 L-26 24Z" fill="#047857"/>
        <path d="M-14 -34 H16 L9 24 H-8Z" fill="#fde68a" opacity=".2"/>
        <text x="0" y="-4" text-anchor="middle" font-size="24" font-weight="900" fill="#fde68a" opacity=".85">WR</text>
        <circle cx="3" cy="-82" r="26" fill="#f1c27d"/>
        <path d="M-20 -85 Q-10 -113 5 -112 Q31 -110 34 -82 Q18 -95 2 -96 Q-12 -94 -20 -85Z" fill="#111827"/>
        <path d="M-17 -100 Q0 -124 26 -101 L21 -87 Q0 -96 -18 -86Z" fill="#fde68a" opacity=".92"/><path d="M-21 -90 Q2 -99 26 -88" stroke="#111827" stroke-width="3" opacity=".55"/>
        <circle cx="-6" cy="-80" r="3" fill="#111827"/>
        <circle cx="12" cy="-80" r="3" fill="#111827"/>
        <path d="M-7 -67 Q4 -60 14 -67" stroke="#7c2d12" stroke-width="3" fill="none" stroke-linecap="round"/>
        <ellipse cx="48" cy="-39" rx="18" ry="10" fill="#7c3f1d" stroke="#fff" stroke-width="2" transform="rotate(-18 48 -39)"/><path d="M36 -39 L58 -39 M47 -46 L48 -32" stroke="#fff" stroke-width="1.8"/>
      </g>
    
  <rect x="30" y="303" width="240" height="70" rx="9" fill="#ffffff" opacity=".7" stroke="#ffffff"/>
  <text x="150" y="333" text-anchor="middle" font-size="24" font-family="Georgia,serif" fill="#374151">Devin Blaze</text>
  <text x="150" y="356" text-anchor="middle" font-size="12" font-weight="900" fill="#7c3f1d">WR · OVR 60</text>
  
      <g transform="translate(247 383)">
        <rect x="-27" y="-27" width="54" height="54" rx="10" fill="#7c3f1d" stroke="#fff" stroke-width="3"/>
        <text x="0" y="7" text-anchor="middle" font-size="18" font-weight="900" fill="#fff">MW</text>
      </g>
    
</svg>