<svg xmlns="http://www.w3.org/2000/svg" viewBox="0 0 300 420">
  <defs>
    <linearGradient id="bg" x1="0" x2="1" y1="0" y2="1">
      <stop offset="0" stop-color="#fef3c7"/>
      <stop offset="1" stop-color="#15803d" stop-opacity=".35"/>
    </linearGradient>
    <filter id="playerShadow" x="-60%" y="-60%" width="220%" height="220%">
      <feDropShadow dx="0" dy="8" stdDeviation="4" flood-color="#000" flood-opacity=".35"/>
    </filter>
  </defs>
  <rect x="8" y="8" width="284" height="404" rx="18" fill="#fff" stroke="#d1d5db" stroke-width="7"/>
  <rect x="24" y="24" width="252" height="260" rx="14" fill="url(#bg)"/>
  <path d="M24 232 C75 190 112 246 162 199 C208 157 237 196 276 153 L276 284 L24 284Z" fill="#111827" opacity=".13"/>
  <text x="40" y="54" font-size="18" font-weight="900" fill="#15803d">⚽ SOCCER</text>
  
      <g transform="translate(148 165) scale(0.86)" filter="url(#playerShadow)">
        
          <path d="M-14 18 L-62 76" stroke="#111827" stroke-width="20" stroke-linecap="round"/>
          <path d="M20 17 L72 58" stroke="#111827" stroke-width="20" stroke-linecap="round"/>
          <path d="M-63 77 L-90 72" stroke="#ffffff" stroke-width="8" stroke-linecap="round"/>
          <path d="M73 59 L98 49" stroke="#ffffff" stroke-width="8" stroke-linecap="round"/>
        
        
          <path d="M-37 -39 L-80 -54" stroke="#e0ac69" stroke-width="16" stroke-linecap="round"/>
          <path d="M33 -39 L76 -20" stroke="#e0ac69" stroke-width="16" stroke-linecap="round"/>
        
        <path d="M-36 -36 Q0 -66 38 -36 L28 24 L-26 24Z" fill="#1d4ed8"/>
        <path d="M-14 -34 H16 L9 24 H-8Z" fill="#ffffff" opacity=".2"/>
        <text x="0" y="-4" text-anchor="middle" font-size="24" font-weight="900" fill="#ffffff" opacity=".85">CM</text>
        <circle cx="3" cy="-82" r="26" fill="#e0ac69"/>
        <path d="M-20 -85 Q-10 -113 5 -112 Q31 -110 34 -82 Q18 -95 2 -96 Q-12 -94 -20 -85Z" fill="#78350f"/>
        
        <circle cx="-6" cy="-80" r="3" fill="#111827"/>
        <circle cx="12" cy="-80" r="3" fill="#111827"/>
        <path d="M-7 -67 Q4 -60 14 -67" stroke="#7c2d12" stroke-width="3" fill="none" stroke-linecap="round"/>
        <circle cx="65" cy="70" r="17" fill="#fff" stroke="#111827" stroke-width="2"/><polygon points="65,58 75,65 71,77 59,77 55,65" fill="#111827"/>
      </g>
    
  <rect x="24" y="296" width="252" height="88" rx="11" fill="#111827"/>
  <text x="42" y="328" font-size="25" font-weight="900" fill="#fff">NICO SANTOS</text>
  <text x="42" y="353" font-size="13" font-weight="700" fill="#d1d5db">Madrid Royals · CM</text>
  <text x="42" y="374" font-size="13" font-weight="800" fill="#fbbf24">OVR 61</text>
  
      <g transform="translate(244 346)">
        <rect x="-27" y="-27" width="54" height="54" rx="10" fill="#15803d" stroke="#fff" stroke-width="3"/>
        <text x="0" y="7" text-anchor="middle" font-size="18" font-weight="900" fill="#fff">MR</text>
      </g>
    
</svg>