<svg xmlns="http://www.w3.org/2000/svg" viewBox="0 0 300 420">
  <defs>
    <linearGradient id="sigbg" x1="0" x2="1" y1="0" y2="1">
      <stop offset="0" stop-color="#fff"/>
      <stop offset=".45" stop-color="#faf5ff"/>
      <stop offset="1" stop-color="#fff"/>
    </linearGradient>
    <filter id="playerShadow" x="-60%" y="-60%" width="220%" height="220%">
      <feDropShadow dx="0" dy="9" stdDeviation="4" flood-color="#000" flood-opacity=".38"/>
    </filter>
  </defs>
  <rect x="7" y="7" width="286" height="406" rx="20" fill="url(#sigbg)" stroke="#a855f7" stroke-width="6"/>
  <rect x="24" y="24" width="252" height="238" rx="13" fill="#15803d" opacity=".22"/>
  <path d="M24 222 C81 171 121 240 180 188 C226 148 248 178 276 144 L276 262 L24 262Z" fill="#111827" opacity=".12"/>
  
      <g transform="translate(150 158) scale(0.87)" filter="url(#playerShadow)">
        
          <path d="M-14 18 L-62 76" stroke="#d1d5db" stroke-width="20" stroke-linecap="round"/>
          <path d="M20 17 L72 58" stroke="#d1d5db" stroke-width="20" stroke-linecap="round"/>
          <path d="M-63 77 L-90 72" stroke="#ffffff" stroke-width="8" stroke-linecap="round"/>
          <path d="M73 59 L98 49" stroke="#ffffff" stroke-width="8" stroke-linecap="round"/>
        
        
          <path d="M-37 -39 L-80 -54" stroke="#ffdbac" stroke-width="16" stroke-linecap="round"/>
          <path d="M33 -39 L76 -20" stroke="#ffdbac" stroke-width="16" stroke-linecap="round"/>
        
        <path d="M-36 -36 Q0 -66 38 -36 L28 24 L-26 24Z" fill="#c2410c"/>
        <path d="M-14 -34 H16 L9 24 H-8Z" fill="#ffffff" opacity=".2"/>
        <text x="0" y="-4" text-anchor="middle" font-size="24" font-weight="900" fill="#ffffff" opacity=".85">ST</text>
        <circle cx="3" cy="-82" r="26" fill="#ffdbac"/>
        <path d="M-20 -85 Q-10 -113 5 -112 Q31 -110 34 -82 Q18 -95 2 -96 Q-12 -94 -20 -85Z" fill="#374151"/>
        
        <circle cx="-6" cy="-80" r="3" fill="#111827"/>
        <circle cx="12" cy="-80" r="3" fill="#111827"/>
        <path d="M-7 -67 Q4 -60 14 -67" stroke="#7c2d12" stroke-width="3" fill="none" stroke-linecap="round"/>
        <circle cx="65" cy="70" r="17" fill="#fff" stroke="#111827" stroke-width="2"/><polygon points="65,58 75,65 71,77 59,77 55,65" fill="#111827"/>
      </g>
    
  <rect x="30" y="274" width="240" height="72" rx="10" fill="#fff" stroke="#a855f7" stroke-width="2"/>
  <path d="M46 318 C77 290 90 344 122 311 C144 288 161 332 194 302 C213 286 226 312 249 292" stroke="#111827" stroke-width="2.2" fill="none"/>
  <text x="150" y="334" text-anchor="middle" font-size="16" font-family="Brush Script MT, cursive" fill="#111827">T. Moreau</text>
  <text x="42" y="374" font-size="23" font-weight="900" fill="#111827">THEO MOREAU</text>
  <text x="42" y="394" font-size="12" font-weight="800" fill="#15803d">Paris Metro · AUTHENTIC SIGNATURE · OVR 77</text>
</svg>