<svg xmlns="http://www.w3.org/2000/svg" viewBox="0 0 300 420">
  <defs>
    <linearGradient id="patchBg" x1="0" x2="1" y1="0" y2="1">
      <stop offset="0" stop-color="#7f1d1d"/>
      <stop offset=".5" stop-color="#15803d"/>
      <stop offset="1" stop-color="#111827"/>
    </linearGradient>
    <filter id="playerShadow" x="-60%" y="-60%" width="220%" height="220%">
      <feDropShadow dx="0" dy="9" stdDeviation="4" flood-color="#000" flood-opacity=".42"/>
    </filter>
  </defs>
  <rect x="6" y="6" width="288" height="408" rx="21" fill="url(#patchBg)" stroke="#f59e0b" stroke-width="7"/>
  <path d="M18 50 C65 18 97 68 140 34 C185 0 231 49 282 18" stroke="#fff" stroke-opacity=".18" stroke-width="6" fill="none"/>
  <rect x="26" y="31" width="248" height="196" rx="14" fill="#fff" opacity=".1"/>
  
      <g transform="translate(151 144) scale(0.82)" filter="url(#playerShadow)">
        
          <path d="M-14 18 L-62 76" stroke="#065f46" stroke-width="20" stroke-linecap="round"/>
          <path d="M20 17 L72 58" stroke="#065f46" stroke-width="20" stroke-linecap="round"/>
          <path d="M-63 77 L-90 72" stroke="#ffffff" stroke-width="8" stroke-linecap="round"/>
          <path d="M73 59 L98 49" stroke="#ffffff" stroke-width="8" stroke-linecap="round"/>
        
        
          <path d="M-37 -39 L-80 -54" stroke="#ffdbac" stroke-width="16" stroke-linecap="round"/>
          <path d="M33 -39 L76 -20" stroke="#ffdbac" stroke-width="16" stroke-linecap="round"/>
        
        <path d="M-36 -36 Q0 -66 38 -36 L28 24 L-26 24Z" fill="#6d28d9"/>
        <path d="M-14 -34 H16 L9 24 H-8Z" fill="#ffffff" opacity=".2"/>
        <text x="0" y="-4" text-anchor="middle" font-size="24" font-weight="900" fill="#ffffff" opacity=".85">W</text>
        <circle cx="3" cy="-82" r="26" fill="#ffdbac"/>
        <path d="M-20 -85 Q-10 -113 5 -112 Q31 -110 34 -82 Q18 -95 2 -96 Q-12 -94 -20 -85Z" fill="#4b2e16"/>
        
        <circle cx="-6" cy="-80" r="3" fill="#111827"/>
        <circle cx="12" cy="-80" r="3" fill="#111827"/>
        <path d="M-7 -67 Q4 -60 14 -67" stroke="#7c2d12" stroke-width="3" fill="none" stroke-linecap="round"/>
        <circle cx="65" cy="70" r="17" fill="#fff" stroke="#111827" stroke-width="2"/><polygon points="65,58 75,65 71,77 59,77 55,65" fill="#111827"/>
      </g>
    
  <rect x="28" y="241" width="104" height="126" rx="10" fill="#f8fafc" stroke="#fff" stroke-width="3"/>
  <path d="M42 258 H118 V352 H42Z" fill="#e5e7eb"/>
  <path d="M43 258 L118 352 M118 258 L43 352" stroke="#15803d" stroke-width="16" opacity=".85"/>
  <path d="M56 258 V352 M80 258 V352 M104 258 V352" stroke="#fff" stroke-width="5" opacity=".6"/>
  <text x="80" y="331" text-anchor="middle" font-size="23" font-weight="900" fill="#111827">PATCH</text>
  <text x="80" y="351" text-anchor="middle" font-size="11" font-weight="900" fill="#111827">1 OF 1</text>
  <text x="147" y="276" font-size="26" font-weight="900" fill="#fff">JULIAN SOLEIL</text>
  <text x="147" y="304" font-size="13" font-weight="800" fill="#e5e7eb">Barcelona Azul · W</text>
  <text x="147" y="333" font-size="20" font-weight="900" fill="#f59e0b">LEGENDARY</text>
  <text x="147" y="359" font-size="20" font-weight="900" fill="#fff">OVR 85</text>
</svg>